<svg width="757" height="453" viewBox="0 0 757 453" fill="none" xmlns="http://www.w3.org/2000/svg">
<path d="M749.339 452.963H7.51709C5.60883 452.961 3.7793 452.202 2.42996 450.852C1.08062 449.503 0.321663 447.673 0.31958 445.765V7.1975C0.321663 5.28924 1.08062 3.45974 2.42996 2.1104C3.7793 0.761056 5.60883 0.00208314 7.51709 0H749.339C751.247 0.00208314 753.077 0.761059 754.426 2.1104C755.776 3.45974 756.535 5.28924 756.537 7.1975V445.765C756.535 447.673 755.776 449.503 754.426 450.852C753.077 452.202 751.247 452.961 749.339 452.963ZM7.51709 2.879C6.37214 2.88025 5.27442 3.33563 4.46481 4.14524C3.65521 4.95484 3.19983 6.05254 3.19858 7.1975V445.765C3.19983 446.91 3.65521 448.008 4.46481 448.817C5.27442 449.627 6.37214 450.082 7.51709 450.084H749.339C750.484 450.082 751.582 449.627 752.391 448.817C753.201 448.008 753.656 446.91 753.658 445.765V7.1975C753.656 6.05255 753.201 4.95485 752.391 4.14524C751.582 3.33564 750.484 2.88025 749.339 2.879H7.51709Z" fill="#E6E6E6"/>
<path d="M306.922 35.0263C305.425 35.0513 303.998 35.6635 302.949 36.7309C301.899 37.7983 301.311 39.2354 301.311 40.7325C301.311 42.2295 301.899 43.6666 302.949 44.734C303.998 45.8014 305.425 46.4136 306.922 46.4387H449.995C451.505 46.4609 452.963 45.8836 454.048 44.8331C455.133 43.7825 455.758 42.3446 455.785 40.8343C455.812 39.324 455.239 37.8647 454.192 36.776C453.145 35.6874 451.709 35.0583 450.199 35.0265L450.182 35.0263C450.12 35.0252 450.057 35.0252 449.995 35.0263H306.922Z" fill="#3F3D56"/>
<path d="M482.44 33.4374C482.229 33.6479 482.111 33.9335 482.111 34.2313C482.111 34.5291 482.229 34.8147 482.44 35.0253L487.26 39.8456H475.374C475.077 39.8465 474.792 39.9652 474.582 40.1757C474.372 40.3862 474.255 40.6713 474.255 40.9685C474.255 41.2657 474.372 41.5508 474.582 41.7613C474.792 41.9718 475.077 42.0905 475.374 42.0914H487.26L482.44 46.9117C482.336 47.0159 482.253 47.1397 482.197 47.2759C482.14 47.4122 482.111 47.5582 482.111 47.7056C482.111 47.8531 482.14 47.9991 482.197 48.1353C482.253 48.2716 482.336 48.3954 482.44 48.4996C482.544 48.6039 482.668 48.6866 482.804 48.743C482.94 48.7995 483.086 48.8285 483.234 48.8285C483.381 48.8285 483.527 48.7995 483.664 48.7431C483.8 48.6866 483.924 48.6039 484.028 48.4997L490.765 41.7625C490.976 41.5519 491.094 41.2663 491.094 40.9685C491.094 40.6707 490.976 40.3851 490.765 40.1745L484.028 33.4374C483.924 33.3331 483.8 33.2504 483.664 33.194C483.527 33.1376 483.381 33.1085 483.234 33.1085C483.087 33.1085 482.941 33.1376 482.804 33.194C482.668 33.2504 482.544 33.3331 482.44 33.4374Z" fill="#E6E6E6"/>
<path d="M274.416 33.4374C274.627 33.648 274.745 33.9335 274.745 34.2313C274.745 34.5291 274.627 34.8147 274.416 35.0253L269.596 39.8457H281.482C281.63 39.8451 281.776 39.8737 281.913 39.9297C282.05 39.9858 282.174 40.0683 282.279 40.1725C282.383 40.2767 282.466 40.4005 282.523 40.5369C282.58 40.6733 282.609 40.8195 282.61 40.9672C282.61 41.1149 282.581 41.2612 282.524 41.3977C282.468 41.5342 282.385 41.6582 282.281 41.7627C282.176 41.8671 282.052 41.9499 281.915 42.0063C281.779 42.0627 281.633 42.0916 281.485 42.0914H269.596L274.416 46.9117C274.521 47.016 274.603 47.1397 274.66 47.276C274.716 47.4122 274.745 47.5582 274.745 47.7057C274.745 47.8531 274.716 47.9991 274.66 48.1354C274.603 48.2716 274.521 48.3954 274.416 48.4997C274.312 48.6039 274.188 48.6866 274.052 48.7431C273.916 48.7995 273.77 48.8286 273.622 48.8286C273.475 48.8286 273.329 48.7995 273.193 48.7431C273.056 48.6867 272.933 48.604 272.828 48.4997L266.091 41.7626C265.881 41.552 265.762 41.2664 265.762 40.9686C265.762 40.6707 265.881 40.3851 266.091 40.1745L272.828 33.4374C273.039 33.2268 273.324 33.1085 273.622 33.1085C273.92 33.1085 274.206 33.2268 274.416 33.4374Z" fill="#E6E6E6"/>
<path d="M159.144 93.45H60.2987V160.627H159.144V93.45Z" fill="#F1F1F1"/>
<path d="M293.498 93.45H194.652V160.627H293.498V93.45Z" fill="#F1F1F1"/>
<path d="M427.851 93.45H329.005V160.627H427.851V93.45Z" fill="#F1F1F1"/>
<path d="M562.204 93.45H463.359V160.627H562.204V93.45Z" fill="#F1F1F1"/>
<path d="M696.558 93.45H597.712V160.627H696.558V93.45Z" fill="#F1F1F1"/>
<path d="M159.507 211.489H60.6611V278.666H159.507V211.489Z" fill="#F1F1F1"/>
<path d="M293.86 211.489H195.014V278.666H293.86V211.489Z" fill="#F1F1F1"/>
<path d="M428.213 211.489H329.368V278.666H428.213V211.489Z" fill="#F1F1F1"/>
<path d="M562.567 211.489H463.721V278.666H562.567V211.489Z" fill="#F1F1F1"/>
<path d="M696.92 211.489H598.074V278.666H696.92V211.489Z" fill="#F1F1F1"/>
<path d="M159.869 329.528H61.0236V396.705H159.869V329.528Z" fill="#F1F1F1"/>
<path d="M294.223 329.528H195.377V396.705H294.223V329.528Z" fill="#F1F1F1"/>
<path d="M428.576 329.528H329.73V396.705H428.576V329.528Z" fill="#F1F1F1"/>
<path d="M562.929 329.528H464.084V396.705H562.929V329.528Z" fill="#F1F1F1"/>
<path d="M697.283 329.528H598.437V396.705H697.283V329.528Z" fill="#F1F1F1"/>
<path d="M349.521 127.038C356.411 127.038 361.996 121.453 361.996 114.563C361.996 107.673 356.411 102.087 349.521 102.087C342.631 102.087 337.045 107.673 337.045 114.563C337.045 121.453 342.631 127.038 349.521 127.038Z" fill="#3182CE"/>
<path d="M213.248 245.077C220.138 245.077 225.724 239.492 225.724 232.602C225.724 225.711 220.138 220.126 213.248 220.126C206.358 220.126 200.772 225.711 200.772 232.602C200.772 239.492 206.358 245.077 213.248 245.077Z" fill="#3182CE"/>
<path d="M349.521 363.116C356.411 363.116 361.996 357.531 361.996 350.641C361.996 343.75 356.411 338.165 349.521 338.165C342.631 338.165 337.045 343.75 337.045 350.641C337.045 357.531 342.631 363.116 349.521 363.116Z" fill="#3182CE"/>
<path d="M486.753 245.077C493.643 245.077 499.229 239.492 499.229 232.602C499.229 225.711 493.643 220.126 486.753 220.126C479.863 220.126 474.277 225.711 474.277 232.602C474.277 239.492 479.863 245.077 486.753 245.077Z" fill="#3F3D56"/>
<path d="M620.147 245.077C627.037 245.077 632.622 239.492 632.622 232.602C632.622 225.711 627.037 220.126 620.147 220.126C613.257 220.126 607.671 225.711 607.671 232.602C607.671 239.492 613.257 245.077 620.147 245.077Z" fill="#3F3D56"/>
<path d="M213.248 363.116C220.138 363.116 225.724 357.531 225.724 350.641C225.724 343.75 220.138 338.165 213.248 338.165C206.358 338.165 200.772 343.75 200.772 350.641C200.772 357.531 206.358 363.116 213.248 363.116Z" fill="#3F3D56"/>
<path d="M542.366 72.9205C542.366 68.319 550.01 64.3768 553.642 62.976C561.046 60.1199 570.261 60.3195 578.029 61.3824C583.239 62.0953 588.345 63.3867 593.541 64.1661C599.859 65.1138 606.385 65.1616 612.764 65.2755C622.337 65.4465 633.067 66.1899 642.235 62.9155C648.696 60.6081 656.412 57.4784 660.369 51.5791C662.684 48.1274 663.99 42.5598 660.288 39.5165C655.369 35.4715 647.426 38.1975 643.324 42.0581C635.433 49.4848 643.205 60.3392 651.857 62.5524C662.393 65.2476 672.48 58.8604 681.348 54.1207C689.699 49.6569 695.303 43.6307 697.041 34.0702C697.597 31.0125 698.856 27.7394 698.856 24.63" stroke="white" stroke-width="3" stroke-linecap="round"/>
<path d="M701.271 12.2386C701.271 13.3245 700.896 14.3282 700.339 15.2693C699.668 16.4055 697.724 18.213 696.443 18.4976C694.275 18.9793 692.135 19.0152 689.92 19.0152" stroke="white" stroke-width="3" stroke-linecap="round"/>
<path d="M701.441 12.7469C701.534 13.8683 702.21 14.9435 702.627 15.9658C703.27 17.544 703.881 19.3344 704.923 20.7C705.965 22.0651 707.246 22.5729 708.895 22.5729" stroke="white" stroke-width="3" stroke-linecap="round"/>
</svg>
